#!OML:ASF I:\golf\golf\golf 2\Subject 1\2002-09-07\Subject1.ASF
:FULLY-SPECIFIED
:DEGREES
1
root 1.13327 18.1969 -10.2504 9.1838 -4.54155 -3.96818
lowerback -7.68686 0.371557 -3.93608
upperback -1.3219 0.692973 3.79565
thorax 2.84613 0.296104 6.25852
lowerneck -18.9347 -0.468053 1.21119
upperneck 26.639 0.266861 -4.47831
head 11.893 -0.352865 -1.84053
rclavicle 7.92654e-015 -2.66371e-014
rhumerus -26.8251 2.04642 -85.7514
rradius 27.4335
rwrist -10.0364
rhand -19.511 16.8321
rfingers 7.12502
rthumb 6.81191 -13.0383
lclavicle 7.92654e-015 -2.66371e-014
lhumerus -30.3067 4.51058 84.8833
lradius 37.5538
lwrist 7.23692
lhand -13.4634 34.1608
lfingers 7.12502
lthumb 12.6465 63.7579
rfemur -13.4213 1.61643 25.0465
rtibia 23.2986
rfoot -13.8859 -5.15896
rtoes 9.04723
lfemur -15.1519 2.27128 -16.283
ltibia 25.0913
lfoot -13.0637 5.33453
ltoes -5.36732
2
root 1.13122 18.1897 -10.2494 9.18933 -4.54527 -3.97369
lowerback -7.58821 0.388571 -3.92147
upperback -1.40241 0.713596 3.77492
thorax 2.70489 0.312813 6.22655
lowerneck -19.2043 -0.317588 1.27052
upperneck 27.2505 0.446486 -4.35722
head 12.1938 -0.256228 -1.79275
rclavicle -1.13804e-014 -4.96962e-014
rhumerus -26.9858 1.84299 -85.7325
rradius 27.013
rwrist -10.1017
rhand -19.4871 17.8094
rfingers 7.12502
rthumb 6.83491 -12.0602
lclavicle -1.13804e-014 -4.96962e-014
lhumerus -30.4122 4.54055 84.7518
lradius 37.3997
lwrist 6.84993
lhand -12.7794 34.5228
lfingers 7.12502
lthumb 13.3059 64.078
rfemur -13.5209 1.72 25.067
rtibia 23.466
rfoot -14.0088 -5.27026
rtoes 9.21141
lfemur -15.0997 2.21403 -16.2633
ltibia 25.0349
lfoot -13.0587 5.48362
ltoes -7.12308
3
root 1.1292 18.1884 -10.247 9.15919 -4.62231 -4.02185
lowerback -7.53697 0.433236 -3.83198
upperback -1.41696 0.765609 3.75508
thorax 2.65563 0.34143 6.15741
lowerneck -19.7396 -0.160409 1.15714
upperneck 28.1727 0.61866 -3.96764
head 12.6774 -0.148797 -1.62056
rclavicle 2.62147e-015 -3.61788e-014
rhumerus -27.1509 1.69491 -85.7457
rradius 26.6608
rwrist -10.3309
rhand -19.602 18.8862
rfingers 7.12502
rthumb 6.72406 -10.9871
lclavicle 2.62147e-015 -3.61788e-014
lhumerus -30.4462 4.50126 84.6866
lradius 37.1971
lwrist 6.89103
lhand -12.8442 34.7653
lfingers 7.12502
lthumb 13.2434 64.3245
rfemur -13.4661 1.78918 25.1266
rtibia 23.4574
rfoot -13.9951 -5.30443
rtoes 8.54938
lfemur -15.0759 2.25263 -16.2025
ltibia 25.0681
lfoot -13.0828 5.50586
ltoes -7.06977
4
root 1.12812 18.1894 -10.2431 9.1144 -4.66851 -4.01786
lowerback -7.5414 0.45727 -3.81054
upperback -1.38157 0.795772 3.75416
thorax 2.69119 0.354823 6.14757
lowerneck -19.9865 -0.0467991 1.09498
upperneck 28.6189 0.764489 -3.79872
head 12.9148 -0.0723722 -1.531
rclavicle -2.06488e-014 -1.19271e-015
rhumerus -27.2343 1.52513 -85.6725
rradius 26.4425
rwrist -10.1934
rhand -19.5595 19.1413
rfingers 7.12502
rthumb 6.76508 -10.7306
lclavicle -2.06488e-014 -1.19271e-015
lhumerus -30.3905 4.59383 84.6362
lradius 36.9253
lwrist 6.66941
lhand -12.6795 35.1381
lfingers 7.12502
lthumb 13.4021 64.687
rfemur -13.4199 1.65818 25.1213
rtibia 23.4914
rfoot -14.0798 -5.11519
rtoes 8.52202
lfemur -15.0035 2.22536 -16.2095
ltibia 25.0636
lfoot -13.0943 5.55283
ltoes -6.88295
5
root 1.12604 18.1906 -10.2375 9.07703 -4.67341 -3.91962
lowerback -7.55464 0.461 -3.91156
upperback -1.38346 0.809723 3.73777
thorax 2.69345 0.361027 6.18994
lowerneck -19.9515 0.00120997 1.1261
upperneck 28.78 0.848148 -3.85938
head 12.977 -0.0410028 -1.54876
rclavicle 1.26477e-014 5.80451e-014
rhumerus -27.3483 1.31019 -85.5504
rradius 26.3455
rwrist -9.69195
rhand -19.3253 18.6087
rfingers 7.12502
rthumb 6.99119 -11.2559
lclavicle 1.26477e-014 5.80451e-014
lhumerus -30.4264 4.74708 84.5587
lradius 36.6536
lwrist 6.25648
lhand -12.2238 35.221
lfingers 7.12502
lthumb 13.8414 64.7405
rfemur -13.377 1.39362 25.0154
rtibia 23.5026
rfoot -14.1243 -4.81224
rtoes 9.53443
lfemur -14.9401 2.22906 -16.3211
ltibia 25.0577
lfoot -13.1267 5.52902
ltoes -6.74904
6
root 1.1231 18.1923 -10.2322 9.04627 -4.6777 -3.84477
lowerback -7.54507 0.466816 -3.98258
upperback -1.4027 0.824028 3.70915
thorax 2.66549 0.369014 6.20123
lowerneck -19.9814 0.0188145 1.18053
upperneck 29.0708 0.888387 -3.93538
head 13.1055 -0.0296359 -1.58698
rclavicle -4.17448e-015 3.97569e-016
rhumerus -27.4969 1.08995 -85.4592
rradius 26.3399
rwrist -9.2177
rhand -19.0928 17.8406
rfingers 7.12502
rthumb 7.2156 -12.0164
lclavicle -4.17448e-015 3.97569e-016
lhumerus -30.5253 4.69012 84.5485
lradius 36.4151
lwrist 6.58611
lhand -12.583 34.8502
lfingers 7.12502
lthumb 13.4951 64.3929
rfemur -13.3298 1.29003 24.9332
rtibia 23.5171
rfoot -14.0414 -4.64613
rtoes 10.8435
lfemur -14.8918 2.40263 -16.4055
ltibia 25.0479
lfoot -13.1838 5.35737
ltoes -6.77074
7
root 1.12165 18.1934 -10.2299 9.03422 -4.64938 -3.77902
lowerback -7.5461 0.450103 -4.04231
upperback -1.39518 0.806642 3.70369
thorax 2.67545 0.359374 6.22837
lowerneck -20.1206 0.0467662 1.23558
upperneck 29.4496 0.957947 -4.04638
head 13.2964 -0.0117496 -1.63707
rclavicle -8.79622e-015 2.38542e-014
rhumerus -27.5982 0.975858 -85.365
rradius 26.2828
rwrist -8.94806
rhand -18.951 17.5097
rfingers 7.12502
rthumb 7.35245 -12.3425
lclavicle -8.79622e-015 2.38542e-014
lhumerus -30.5477 4.70018 84.5512
lradius 36.1744
lwrist 6.80923
lhand -12.8794 34.9144
lfingers 7.12502
lthumb 13.2094 64.4759
rfemur -13.3263 1.2804 24.8635
rtibia 23.5479
rfoot -14.0111 -4.62373
rtoes 11.6085
lfemur -14.8775 2.48066 -16.4753
ltibia 25.0302
lfoot -13.1966 5.24846
ltoes -6.75782
8
root 1.12179 18.1922 -10.2289 9.03528 -4.62361 -3.72449
lowerback -7.55713 0.430473 -4.0586
upperback -1.39258 0.782105 3.6998
thorax 2.68751 0.346535 6.23161
lowerneck -20.185 0.106532 1.28522
upperneck 29.7475 1.06639 -4.1341
head 13.4404 0.0267559 -1.66853
rclavicle 1.16786e-015 3.85642e-014
rhumerus -27.745 0.99309 -85.308
rradius 26.1799
rwrist -8.85978
rhand -18.9315 17.687
rfingers 7.12502
rthumb 7.37129 -12.1646
lclavicle 1.16786e-015 3.85642e-014
lhumerus -30.5721 4.84777 84.4996
lradius 35.8721
lwrist 6.68974
lhand -12.8691 34.9116
lfingers 7.12502
lthumb 13.2194 64.4724
rfemur -13.3541 1.25444 24.8089
rtibia 23.5944
rfoot -14.0283 -4.65769
rtoes 11.2874
lfemur -14.8746 2.42283 -16.5332
ltibia 25.0009
lfoot -13.1526 5.27124
ltoes -6.62947
9
root 1.12145 18.1882 -10.2276 9.01068 -4.70352 -3.69257
lowerback -7.56096 0.433995 -4.04091
upperback -1.39087 0.785995 3.68102
thorax 2.69142 0.348495 6.20192
lowerneck -20.0766 0.190878 1.33146
upperneck 29.8746 1.19046 -4.17246
head 13.4763 0.0810298 -1.67233
rclavicle 7.95139e-015 0
rhumerus -27.9403 1.08147 -85.3383
rradius 26.0916
rwrist -8.94123
rhand -19.0942 18.0014
rfingers 7.12502
rthumb 7.21421 -11.8556
lclavicle 7.95139e-015 0
lhumerus -30.647 4.96301 84.4128
lradius 35.5131
lwrist 6.71581
lhand -12.9129 34.6729
lfingers 7.12502
lthumb 13.1772 64.2365
rfemur -13.3504 1.32516 24.7687
rtibia 23.6321
rfoot -13.9887 -4.69859
rtoes 10.6457
lfemur -14.8181 2.46348 -16.5774
ltibia 24.9819
lfoot -13.1282 5.32556
ltoes -6.68494
10
root 1.12063 18.1863 -10.2243 8.95521 -4.8339 -3.66358
lowerback -7.57509 0.427055 -4.04087
upperback -1.37668 0.776803 3.68329
thorax 2.7153 0.342775 6.20399
lowerneck -19.9081 0.285139 1.33875
upperneck 30.0037 1.34353 -4.21149
head 13.5014 0.14374 -1.66444
rclavicle -9.96408e-015 1.66979e-014
rhumerus -28.1255 1.20308 -85.3671
rradius 26.0065
rwrist -9.06545
rhand -19.2867 18.2321
rfingers 7.12502
rthumb 7.02845 -11.6312
lclavicle -9.96408e-015 1.66979e-014
lhumerus -30.774 5.1534 84.2979
lradius 35.1825
lwrist 6.59685
lhand -12.6956 34.723
lfingers 7.12502
lthumb 13.3866 64.2729
rfemur -13.2941 1.44215 24.7231
rtibia 23.6455
rfoot -14.0092 -4.67338
rtoes 10.9739
lfemur -14.7167 2.48644 -16.6176
ltibia 24.986
lfoot -13.1525 5.44186
ltoes -6.81197
11
root 1.12052 18.1871 -10.2215 8.91755 -4.88555 -3.7204
lowerback -7.62377 0.432568 -3.89782
upperback -1.32963 0.773477 3.67826
thorax 2.79403 0.338823 6.11778
lowerneck -19.8906 0.340835 1.35716
upperneck 30.2591 1.43979 -4.24754
head 13.6107 0.181131 -1.67078
rclavicle 9.56651e-016 6.16232e-014
rhumerus -28.2159 1.06454 -85.3348
rradius 25.9102
rwrist -8.93271
rhand -19.3071 18.1108
rfingers 7.12502
rthumb 7.00871 -11.7532
lclavicle 9.56651e-016 6.16232e-014
lhumerus -30.8046 5.30456 84.1806
lradius 34.8204
lwrist 6.39016
lhand -12.5564 34.6138
lfingers 7.12502
lthumb 13.5208 64.1549
rfemur -13.2373 1.50568 24.7807
rtibia 23.6544
rfoot -14.0635 -4.64628
rtoes 11.673
lfemur -14.6507 2.47661 -16.5514
ltibia 24.9901
lfoot -13.2036 5.49331
ltoes -6.63021
12
root 1.1227 18.186 -10.2211 8.91946 -4.90636 -3.79183
lowerback -7.66103 0.446111 -3.72852
upperback -1.30197 0.778666 3.66619
thorax 2.84553 0.340807 6.00927
lowerneck -19.9475 0.374216 1.37681
upperneck 30.5725 1.50355 -4.27843
head 13.7606 0.204083 -1.68268
rclavicle -1.02995e-014 -2.46493e-014
rhumerus -28.3021 0.840829 -85.2768
rradius 25.8136
rwrist -8.68644
rhand -19.2973 17.8985
rfingers 7.12502
rthumb 7.01818 -11.9651
lclavicle -1.02995e-014 -2.46493e-014
lhumerus -30.8117 5.4158 84.0809
lradius 34.4157
lwrist 6.21824
lhand -12.6305 34.4335
lfingers 7.12502
lthumb 13.4493 63.9792
rfemur -13.2118 1.47272 24.8543
rtibia 23.6241
rfoot -14.0549 -4.60827
rtoes 11.5597
lfemur -14.6194 2.58633 -16.481
ltibia 24.9438
lfoot -13.249 5.39321
ltoes -6.59847
13
root 1.12755 18.1855 -10.219 8.90137 -4.92417 -3.74296
lowerback -7.62007 0.415426 -3.722
upperback -1.32245 0.736327 3.66824
thorax 2.80699 0.321235 6.00236
lowerneck -19.8881 0.448058 1.39057
upperneck 30.7909 1.63946 -4.34891
head 13.8486 0.253608 -1.69416
rclavicle 1.02871e-014 1.11319e-014
rhumerus -28.46 0.695848 -85.148
rradius 25.6751
rwrist -8.31446
rhand -19.1996 17.9485
rfingers 7.12502
rthumb 7.11252 -11.912
lclavicle 1.02871e-014 1.11319e-014
lhumerus -30.9506 5.65634 83.9821
lradius 34.0323
lwrist 6.05321
lhand -12.6353 34.4433
lfingers 7.12502
lthumb 13.4448 63.9893
rfemur -13.1699 1.34225 24.7803
rtibia 23.5891
rfoot -14.0465 -4.49219
rtoes 11.2301
lfemur -14.5804 2.65513 -16.5616
ltibia 24.9159
lfoot -13.2801 5.32647
ltoes -6.9865
